<mxfile host="app.diagrams.net" modified="2023-03-21T11:41:29.308Z" agent="5.0 (X11; Linux x86_64) AppleWebKit/537.36 (KHTML, like Gecko) Chrome/110.0.0.0 Safari/537.36" etag="_BEWmjZ9GoZjsFjcNze9" version="21.0.8" type="github">
  <diagram name="Page-1" id="tiwftkSVFOPnRIYevvc3">
    <mxGraphModel dx="1147" dy="638" grid="1" gridSize="10" guides="1" tooltips="1" connect="1" arrows="1" fold="1" page="1" pageScale="1" pageWidth="850" pageHeight="1100" math="0" shadow="0">
      <root>
        <mxCell id="0" />
        <mxCell id="1" parent="0" />
        <mxCell id="0N-JnR43LLcTaZyG42Pl-1" value="" style="shape=image;html=1;verticalAlign=top;verticalLabelPosition=bottom;labelBackgroundColor=#ffffff;imageAspect=0;aspect=fixed;image=https://cdn1.iconfinder.com/data/icons/picons-social/57/github_rounded-128.png" vertex="1" parent="1">
          <mxGeometry x="360" y="350" width="98" height="98" as="geometry" />
        </mxCell>
        <mxCell id="0N-JnR43LLcTaZyG42Pl-2" value="" style="html=1;verticalLabelPosition=bottom;align=center;labelBackgroundColor=#ffffff;verticalAlign=top;strokeWidth=2;strokeColor=#0080F0;shadow=0;dashed=0;shape=mxgraph.ios7.icons.user;" vertex="1" parent="1">
          <mxGeometry x="210" y="359" width="80" height="80" as="geometry" />
        </mxCell>
        <mxCell id="0N-JnR43LLcTaZyG42Pl-3" value="" style="sketch=0;points=[[0,0,0],[0.25,0,0],[0.5,0,0],[0.75,0,0],[1,0,0],[0,1,0],[0.25,1,0],[0.5,1,0],[0.75,1,0],[1,1,0],[0,0.25,0],[0,0.5,0],[0,0.75,0],[1,0.25,0],[1,0.5,0],[1,0.75,0]];outlineConnect=0;fontColor=#232F3E;gradientColor=#F54749;gradientDirection=north;fillColor=#C7131F;strokeColor=#ffffff;dashed=0;verticalLabelPosition=bottom;verticalAlign=top;align=center;html=1;fontSize=12;fontStyle=0;aspect=fixed;shape=mxgraph.aws4.resourceIcon;resIcon=mxgraph.aws4.amplify;" vertex="1" parent="1">
          <mxGeometry x="540" y="360" width="78" height="78" as="geometry" />
        </mxCell>
        <mxCell id="0N-JnR43LLcTaZyG42Pl-4" value="" style="endArrow=classic;html=1;rounded=0;" edge="1" parent="1">
          <mxGeometry width="50" height="50" relative="1" as="geometry">
            <mxPoint x="293" y="400" as="sourcePoint" />
            <mxPoint x="363" y="399.82352941176464" as="targetPoint" />
          </mxGeometry>
        </mxCell>
        <mxCell id="0N-JnR43LLcTaZyG42Pl-5" value="" style="endArrow=classic;html=1;rounded=0;" edge="1" parent="1">
          <mxGeometry width="50" height="50" relative="1" as="geometry">
            <mxPoint x="458" y="400" as="sourcePoint" />
            <mxPoint x="530" y="400" as="targetPoint" />
          </mxGeometry>
        </mxCell>
        <mxCell id="0N-JnR43LLcTaZyG42Pl-6" value="&lt;font style=&quot;font-size: 12px;&quot;&gt;Developer&lt;/font&gt;" style="text;html=1;align=center;verticalAlign=middle;resizable=0;points=[];autosize=1;strokeColor=none;fillColor=none;" vertex="1" parent="1">
          <mxGeometry x="210" y="438" width="80" height="30" as="geometry" />
        </mxCell>
        <mxCell id="0N-JnR43LLcTaZyG42Pl-7" value="&lt;font style=&quot;font-size: 12px;&quot;&gt;GitHub&lt;/font&gt;" style="text;html=1;align=center;verticalAlign=middle;resizable=0;points=[];autosize=1;strokeColor=none;fillColor=none;" vertex="1" parent="1">
          <mxGeometry x="379" y="438" width="60" height="30" as="geometry" />
        </mxCell>
        <mxCell id="0N-JnR43LLcTaZyG42Pl-8" value="&lt;font style=&quot;font-size: 12px;&quot;&gt;AWS Amplify&lt;/font&gt;" style="text;html=1;align=center;verticalAlign=middle;resizable=0;points=[];autosize=1;strokeColor=none;fillColor=none;" vertex="1" parent="1">
          <mxGeometry x="534" y="438" width="90" height="30" as="geometry" />
        </mxCell>
        <mxCell id="0N-JnR43LLcTaZyG42Pl-9" value="&lt;font style=&quot;&quot;&gt;&lt;font style=&quot;font-size: 10px;&quot;&gt;pushes code&lt;/font&gt;&lt;br&gt;&lt;/font&gt;" style="text;html=1;align=center;verticalAlign=middle;resizable=0;points=[];autosize=1;strokeColor=none;fillColor=none;" vertex="1" parent="1">
          <mxGeometry x="285" y="375" width="80" height="30" as="geometry" />
        </mxCell>
        <mxCell id="0N-JnR43LLcTaZyG42Pl-10" value="&lt;font style=&quot;&quot;&gt;&lt;font style=&quot;font-size: 10px;&quot;&gt;web hook&lt;/font&gt;&lt;br&gt;&lt;/font&gt;" style="text;html=1;align=center;verticalAlign=middle;resizable=0;points=[];autosize=1;strokeColor=none;fillColor=none;" vertex="1" parent="1">
          <mxGeometry x="453" y="376" width="70" height="30" as="geometry" />
        </mxCell>
        <mxCell id="0N-JnR43LLcTaZyG42Pl-11" value="" style="shape=image;html=1;verticalAlign=top;verticalLabelPosition=bottom;labelBackgroundColor=#ffffff;imageAspect=0;aspect=fixed;image=https://cdn1.iconfinder.com/data/icons/picons-social/57/github_rounded-128.png" vertex="1" parent="1">
          <mxGeometry x="193" y="680" width="98" height="98" as="geometry" />
        </mxCell>
        <mxCell id="0N-JnR43LLcTaZyG42Pl-12" value="" style="html=1;verticalLabelPosition=bottom;align=center;labelBackgroundColor=#ffffff;verticalAlign=top;strokeWidth=2;strokeColor=#0080F0;shadow=0;dashed=0;shape=mxgraph.ios7.icons.user;" vertex="1" parent="1">
          <mxGeometry x="25" y="689" width="80" height="80" as="geometry" />
        </mxCell>
        <mxCell id="0N-JnR43LLcTaZyG42Pl-14" value="" style="endArrow=classic;html=1;rounded=0;" edge="1" parent="1">
          <mxGeometry width="50" height="50" relative="1" as="geometry">
            <mxPoint x="119" y="730" as="sourcePoint" />
            <mxPoint x="189" y="729.8235294117646" as="targetPoint" />
          </mxGeometry>
        </mxCell>
        <mxCell id="0N-JnR43LLcTaZyG42Pl-16" value="&lt;font style=&quot;font-size: 12px;&quot;&gt;Developer&lt;/font&gt;" style="text;html=1;align=center;verticalAlign=middle;resizable=0;points=[];autosize=1;strokeColor=none;fillColor=none;" vertex="1" parent="1">
          <mxGeometry x="25" y="768" width="80" height="30" as="geometry" />
        </mxCell>
        <mxCell id="0N-JnR43LLcTaZyG42Pl-17" value="&lt;font style=&quot;font-size: 12px;&quot;&gt;GitHub&lt;/font&gt;" style="text;html=1;align=center;verticalAlign=middle;resizable=0;points=[];autosize=1;strokeColor=none;fillColor=none;" vertex="1" parent="1">
          <mxGeometry x="212" y="768" width="60" height="30" as="geometry" />
        </mxCell>
        <mxCell id="0N-JnR43LLcTaZyG42Pl-19" value="&lt;font style=&quot;&quot;&gt;&lt;font style=&quot;font-size: 10px;&quot;&gt;pushes code&lt;/font&gt;&lt;br&gt;&lt;/font&gt;" style="text;html=1;align=center;verticalAlign=middle;resizable=0;points=[];autosize=1;strokeColor=none;fillColor=none;" vertex="1" parent="1">
          <mxGeometry x="112" y="703" width="80" height="30" as="geometry" />
        </mxCell>
        <mxCell id="0N-JnR43LLcTaZyG42Pl-20" value="&lt;font style=&quot;font-size: 10px;&quot;&gt;&lt;font style=&quot;font-size: 10px;&quot;&gt;Github actions&amp;nbsp;&lt;/font&gt;(pipeline)&lt;br&gt;&lt;/font&gt;" style="text;html=1;align=center;verticalAlign=middle;resizable=0;points=[];autosize=1;strokeColor=none;fillColor=none;" vertex="1" parent="1">
          <mxGeometry x="281" y="701" width="130" height="30" as="geometry" />
        </mxCell>
        <mxCell id="0N-JnR43LLcTaZyG42Pl-21" value="Amazon ECR" style="sketch=0;outlineConnect=0;fontColor=#232F3E;gradientColor=none;strokeColor=#ffffff;fillColor=#232F3E;dashed=0;verticalLabelPosition=middle;verticalAlign=bottom;align=center;html=1;whiteSpace=wrap;fontSize=10;fontStyle=1;spacing=3;shape=mxgraph.aws4.productIcon;prIcon=mxgraph.aws4.ecr;" vertex="1" parent="1">
          <mxGeometry x="407" y="690" width="80" height="80" as="geometry" />
        </mxCell>
        <mxCell id="0N-JnR43LLcTaZyG42Pl-22" value="&lt;font style=&quot;font-size: 12px;&quot;&gt;AWS ECR&lt;/font&gt;" style="text;html=1;align=center;verticalAlign=middle;resizable=0;points=[];autosize=1;strokeColor=none;fillColor=none;" vertex="1" parent="1">
          <mxGeometry x="403" y="767" width="80" height="30" as="geometry" />
        </mxCell>
        <mxCell id="0N-JnR43LLcTaZyG42Pl-23" value="" style="sketch=0;points=[[0,0,0],[0.25,0,0],[0.5,0,0],[0.75,0,0],[1,0,0],[0,1,0],[0.25,1,0],[0.5,1,0],[0.75,1,0],[1,1,0],[0,0.25,0],[0,0.5,0],[0,0.75,0],[1,0.25,0],[1,0.5,0],[1,0.75,0]];outlineConnect=0;fontColor=#232F3E;gradientColor=#F78E04;gradientDirection=north;fillColor=#D05C17;strokeColor=#ffffff;dashed=0;verticalLabelPosition=bottom;verticalAlign=top;align=center;html=1;fontSize=12;fontStyle=0;aspect=fixed;shape=mxgraph.aws4.resourceIcon;resIcon=mxgraph.aws4.app_runner;" vertex="1" parent="1">
          <mxGeometry x="600" y="690" width="78" height="78" as="geometry" />
        </mxCell>
        <mxCell id="0N-JnR43LLcTaZyG42Pl-24" value="" style="endArrow=classic;html=1;rounded=0;" edge="1" parent="1">
          <mxGeometry width="50" height="50" relative="1" as="geometry">
            <mxPoint x="507" y="727.89" as="sourcePoint" />
            <mxPoint x="577" y="727.7135294117646" as="targetPoint" />
          </mxGeometry>
        </mxCell>
        <mxCell id="0N-JnR43LLcTaZyG42Pl-25" value="&lt;font style=&quot;font-size: 10px;&quot;&gt;Build and Deploy&lt;br&gt;&lt;/font&gt;" style="text;html=1;align=center;verticalAlign=middle;resizable=0;points=[];autosize=1;strokeColor=none;fillColor=none;" vertex="1" parent="1">
          <mxGeometry x="491" y="701" width="100" height="30" as="geometry" />
        </mxCell>
        <mxCell id="0N-JnR43LLcTaZyG42Pl-26" value="&lt;font style=&quot;font-size: 12px;&quot;&gt;AWS App Runner&lt;/font&gt;" style="text;html=1;align=center;verticalAlign=middle;resizable=0;points=[];autosize=1;strokeColor=none;fillColor=none;" vertex="1" parent="1">
          <mxGeometry x="579" y="767" width="120" height="30" as="geometry" />
        </mxCell>
        <mxCell id="0N-JnR43LLcTaZyG42Pl-28" value="" style="outlineConnect=0;dashed=0;verticalLabelPosition=bottom;verticalAlign=top;align=center;html=1;shape=mxgraph.aws3.codepipeline;fillColor=#759C3E;gradientColor=none;" vertex="1" parent="1">
          <mxGeometry x="360" y="570" width="70.41" height="84.5" as="geometry" />
        </mxCell>
        <mxCell id="0N-JnR43LLcTaZyG42Pl-30" value="" style="endArrow=classic;html=1;rounded=0;" edge="1" parent="1">
          <mxGeometry width="50" height="50" relative="1" as="geometry">
            <mxPoint x="306" y="728.43" as="sourcePoint" />
            <mxPoint x="378" y="728.43" as="targetPoint" />
          </mxGeometry>
        </mxCell>
        <mxCell id="0N-JnR43LLcTaZyG42Pl-33" value="&lt;span style=&quot;font-size: 10px;&quot;&gt;sonarqube checks (pipeline)&lt;/span&gt;" style="text;html=1;align=center;verticalAlign=middle;resizable=0;points=[];autosize=1;strokeColor=none;fillColor=none;" vertex="1" parent="1">
          <mxGeometry x="215.99999999999994" y="593" width="150" height="30" as="geometry" />
        </mxCell>
        <mxCell id="0N-JnR43LLcTaZyG42Pl-38" value="" style="endArrow=none;html=1;rounded=0;" edge="1" parent="1">
          <mxGeometry width="50" height="50" relative="1" as="geometry">
            <mxPoint x="240" y="680" as="sourcePoint" />
            <mxPoint x="240" y="620" as="targetPoint" />
          </mxGeometry>
        </mxCell>
        <mxCell id="0N-JnR43LLcTaZyG42Pl-46" value="&lt;font style=&quot;font-size: 8px;&quot;&gt;push container&lt;br&gt;&lt;/font&gt;" style="text;html=1;align=center;verticalAlign=middle;resizable=0;points=[];autosize=1;strokeColor=none;fillColor=none;" vertex="1" parent="1">
          <mxGeometry x="302" y="720" width="80" height="30" as="geometry" />
        </mxCell>
        <mxCell id="0N-JnR43LLcTaZyG42Pl-48" value="" style="endArrow=classic;html=1;rounded=0;" edge="1" parent="1">
          <mxGeometry width="50" height="50" relative="1" as="geometry">
            <mxPoint x="240" y="620" as="sourcePoint" />
            <mxPoint x="345" y="620" as="targetPoint" />
          </mxGeometry>
        </mxCell>
        <mxCell id="0N-JnR43LLcTaZyG42Pl-68" value="" style="endArrow=classic;html=1;rounded=0;" edge="1" parent="1">
          <mxGeometry width="50" height="50" relative="1" as="geometry">
            <mxPoint x="412" y="286" as="sourcePoint" />
            <mxPoint x="517" y="286" as="targetPoint" />
          </mxGeometry>
        </mxCell>
        <mxCell id="0N-JnR43LLcTaZyG42Pl-69" value="" style="endArrow=none;html=1;rounded=0;" edge="1" parent="1">
          <mxGeometry width="50" height="50" relative="1" as="geometry">
            <mxPoint x="412" y="346" as="sourcePoint" />
            <mxPoint x="412" y="286" as="targetPoint" />
          </mxGeometry>
        </mxCell>
        <mxCell id="0N-JnR43LLcTaZyG42Pl-70" value="&lt;span style=&quot;font-size: 10px;&quot;&gt;sonarqube checks (pipeline)&lt;/span&gt;" style="text;html=1;align=center;verticalAlign=middle;resizable=0;points=[];autosize=1;strokeColor=none;fillColor=none;" vertex="1" parent="1">
          <mxGeometry x="387.99999999999994" y="259" width="150" height="30" as="geometry" />
        </mxCell>
        <mxCell id="0N-JnR43LLcTaZyG42Pl-71" value="" style="outlineConnect=0;dashed=0;verticalLabelPosition=bottom;verticalAlign=top;align=center;html=1;shape=mxgraph.aws3.codepipeline;fillColor=#759C3E;gradientColor=none;" vertex="1" parent="1">
          <mxGeometry x="546" y="236" width="70.41" height="84.5" as="geometry" />
        </mxCell>
      </root>
    </mxGraphModel>
  </diagram>
</mxfile>
